<svg width="31" height="31" viewBox="0 0 31 31" fill="none" xmlns="http://www.w3.org/2000/svg">
<g id="instagram (7) 1" clip-path="url(#clip0_63_1373)">
<path id="Vector" d="M22.6085 0H8.3914C3.76431 0 0 3.76431 0 8.3914V22.6088C0 27.2356 3.76431 30.9999 8.3914 30.9999H22.6088C27.2356 30.9999 30.9999 27.2356 30.9999 22.6088V8.3914C30.9999 3.76431 27.2356 0 22.6085 0V0ZM15.5 23.9763C10.826 23.9763 7.02366 20.1739 7.02366 15.5C7.02366 10.826 10.826 7.02366 15.5 7.02366C20.1739 7.02366 23.9763 10.826 23.9763 15.5C23.9763 20.1739 20.1739 23.9763 15.5 23.9763ZM24.179 9.02265C22.7977 9.02265 21.6743 7.89922 21.6743 6.518C21.6743 5.13678 22.7977 4.01311 24.179 4.01311C25.5602 4.01311 26.6839 5.13678 26.6839 6.518C26.6839 7.89922 25.5602 9.02265 24.179 9.02265Z" fill="#858585"/>
<path id="Vector_2" d="M15.4998 8.84106C11.8282 8.84106 8.84082 11.8282 8.84082 15.5C8.84082 19.1716 11.8282 22.159 15.4998 22.159C19.1716 22.159 22.1587 19.1716 22.1587 15.5C22.1587 11.8282 19.1716 8.84106 15.4998 8.84106Z" fill="#858585"/>
<path id="Vector_3" d="M24.179 5.83081C23.8001 5.83081 23.4917 6.13922 23.4917 6.51811C23.4917 6.897 23.8001 7.20541 24.179 7.20541C24.5581 7.20541 24.8665 6.89724 24.8665 6.51811C24.8665 6.13898 24.5581 5.83081 24.179 5.83081Z" fill="#858585"/>
</g>
<defs>
<clipPath id="clip0_63_1373">
<rect width="31" height="31" fill="white"/>
</clipPath>
</defs>
</svg>
